<svg width="258" height="235" viewBox="0 0 258 235" fill="none" xmlns="http://www.w3.org/2000/svg">
<path d="M226.895 0C183.827 43.1632 134.778 101.913 134.778 166.658C134.778 215.816 164.686 235 192.202 235C225.699 235 252.018 208.622 252.018 176.25C252.018 146.275 230.484 122.296 202.969 118.699C208.95 87.5255 231.681 57.551 258 31.1734L226.895 0ZM93.3141 0C49.0497 43.1632 0 101.913 0 166.658C0 215.816 31.1047 235 58.6204 235C92.1178 235 117.241 208.622 117.241 176.25C117.241 146.275 96.9031 122.296 68.1911 118.699C74.1727 87.5255 96.9031 57.551 124.419 31.1734L93.3141 0Z" fill="#F8F4EE"/>
</svg>
