<svg width="55" height="6" viewBox="0 0 55 6" fill="none" xmlns="http://www.w3.org/2000/svg">
    <path d="M27.5 4.1878C32.2305 4.1878 32.8612 6.01997 36.6667 5.99984C40.4511 6.01997 41.1028 4.1878 45.8333 4.1878C50.5638 4.1878 51.2156 6.01997 55 5.99984V1.7919C51.2156 1.81203 50.5638 0 45.8333 0C41.1028 0 40.4721 1.81203 36.6667 1.7919C32.8612 1.81203 32.2305 0 27.5 0C22.7695 0 22.1388 1.81203 18.3333 1.7919C14.5489 1.81203 13.8972 0 9.16667 0C4.43616 0 3.7844 1.81203 0 1.7919V5.99984C3.7844 6.01997 4.43616 4.1878 9.16667 4.1878C13.8972 4.1878 14.5279 6.01997 18.3333 5.99984C22.1388 6.01997 22.7695 4.1878 27.5 4.1878Z" fill="#B55A18"/>
</svg>
