<svg width="30" height="4" viewBox="0 0 30 4" fill="none" xmlns="http://www.w3.org/2000/svg">
<path d="M15 2.79187C17.5803 2.79187 17.9243 4.01331 20 3.99989C22.0642 4.01331 22.4197 2.79187 25 2.79187C27.5803 2.79187 27.9358 4.01331 30 3.99989V1.1946C27.9358 1.20802 27.5803 0 25 0C22.4197 0 22.0757 1.20802 20 1.1946C17.9243 1.20802 17.5803 0 15 0C12.4197 0 12.0757 1.20802 10 1.1946C7.93578 1.20802 7.58028 0 5 0C2.41972 0 2.06422 1.20802 0 1.1946V3.99989C2.06422 4.01331 2.41972 2.79187 5 2.79187C7.58028 2.79187 7.92431 4.01331 10 3.99989C12.0757 4.01331 12.4197 2.79187 15 2.79187Z" fill="#B55A18"/>
</svg>
